  <svg
              width="52"
              height="33"
              viewBox="0 0 52 33"
              fill="none"
              xmlns="http://www.w3.org/2000/svg"
            >
              <path
                d="M23.7535 2.0821C22.6613 3.24262 21.569 4.53966 21.296 4.94926C20.784 5.73431 20.8181 5.80258 22.1151 6.96309C22.8661 7.64575 23.9924 8.97693 24.6068 9.89852C25.2554 10.8201 25.8697 11.6052 25.9721 11.6052C26.1087 11.6052 26.5865 11.0249 27.0644 10.3081C27.5081 9.59132 28.6345 8.29427 29.4878 7.40682C30.9555 5.97324 31.0579 5.73431 30.6825 5.05166C30.2046 4.13007 26.2793 0 25.9039 0C25.7674 0 24.8116 0.921586 23.7535 2.0821Z"
                fill="black"
              />
              <path
                d="M10.271 4.19835C9.62253 5.87086 9.1788 8.80628 9.2812 10.3764L9.3836 12.0489L11.1244 12.6292C12.046 12.9705 13.3089 13.4825 13.8891 13.7555L14.9131 14.3017L15.6299 11.3662C16.0395 9.762 16.4491 8.36256 16.5174 8.29429C16.6198 8.19189 17.1659 8.46495 17.7461 8.87455C18.5312 9.45481 18.7701 9.83027 18.6336 10.3764C18.5312 10.7519 18.2923 12.1513 18.0875 13.4825L17.712 15.8718L20.033 18.2611C22.3541 20.6845 24.402 24.0295 25.2554 26.7943C25.4602 27.5452 25.7332 28.3985 25.8356 28.6716C25.9039 28.9446 26.3817 27.9889 26.8255 26.5553C27.8153 23.4493 30.3753 19.4216 32.6622 17.4078L34.2664 16.0083L33.8227 13.3801C33.5838 11.9465 33.379 10.4788 33.3448 10.1375C33.3107 9.79613 33.7203 9.25001 34.3688 8.84042L35.4269 8.15776L35.9731 9.79613C36.2461 10.6836 36.5874 12.083 36.724 12.8681L36.9288 14.3017L38.021 13.7555C38.6013 13.4483 39.9325 12.9364 40.9565 12.595L42.8338 12.0148L42.7996 10.1375C42.7655 9.11348 42.4924 7.20204 42.1511 5.83673C41.5026 3.1061 41.8098 3.2085 38.3624 4.50555C32.628 6.62178 27.7471 12.083 26.45 17.8515L26.0745 19.5581L25.153 16.7592C24.0607 13.4142 22.593 11.0249 20.1354 8.63562C18.2923 6.82658 14.2305 4.47141 11.8412 3.82289C10.6465 3.48156 10.51 3.5157 10.271 4.19835Z"
                fill="black"
              />
              <path
                d="M1.46478 13.8921C-0.241858 14.0627 -0.310124 14.3358 0.509064 17.5101C1.90851 22.9031 5.83378 27.6476 10.8513 30.071C13.1723 31.1974 16.7904 32.0848 18.9408 32.0507H20.3061L18.5995 31.1633C14.6059 29.0812 11.022 25.4631 8.93987 21.333C7.88175 19.2168 6.9943 16.452 7.26736 16.1448C7.36976 16.0766 7.95002 16.1107 8.59854 16.2131C9.62253 16.4179 9.86146 16.6568 10.3734 18.1245C11.8753 22.2887 15.8006 26.5553 19.9648 28.5692C21.2618 29.1836 22.5247 29.6956 22.7295 29.6956C23.378 29.6956 22.6954 27.2721 21.2618 24.4732C18.6677 19.3192 13.343 15.3598 7.43803 14.1651C4.84393 13.6531 4.36607 13.6531 1.46478 13.8921Z"
                fill="black"
              />
              <path
                d="M46.247 13.8579C45.8716 13.9262 44.7111 14.1651 43.6871 14.3699C38.4647 15.3939 33.14 19.524 30.6142 24.5756C29.2489 27.2721 28.6345 29.6956 29.283 29.6956C30.1022 29.6956 33.379 28.023 35.1197 26.6919C37.6797 24.7463 39.4887 22.4935 40.9906 19.2509C42.2876 16.5544 42.7655 16.0766 44.3356 16.0424C45.5644 16.0424 43.1068 22.0157 40.5127 25.2924C38.6013 27.6476 36.5192 29.4225 33.7203 30.9243L31.5699 32.0849H33.14C36.8264 32.0849 41.9804 30.1051 45.2913 27.4087C47.1686 25.9068 49.6262 22.4253 50.6843 19.8994C51.5376 17.7491 52.2544 14.4041 51.9131 14.1993C51.5376 13.9603 46.9638 13.6873 46.247 13.8579Z"
                fill="black"
              />
            </svg>